PathFileType	4	(X/Y/Z)
DataRate	CameraRate	NumFrames	NumMarkers	Units	OrigDataRate	OrigDataStartFrame	OrigNumFrames	
  120.0	  120.0	    4	     56	     mm	  120.0	      162	    431
Frame#	Time	LASI			RASI			LPSI			RPSI			RTH1			RTH2			RTH3			RLFC			RMFC			LTH1			LTH2			LTH3			LLFC			LMFC			RTB1			RTB2			RTB3			RLMAL			RMMAL			LTB1			LTB2			LTB3			LMMAL			LLMAL			RCAL			RTOE			RMT5			LCAL			LTOE			LMT5			LACR			RACR			CLAV			C7			LASH			LPSH			RASH			RPSH			RUA1			RUA2			RUA3			RLEL			RMEL			LUA1			LUA2			LUA3			LLEL			LMEL			RFAsuperior			RFAradius			RFAulna			LFAsuperior			LFAradius			LFAulna			RHJC			LHJC			
		X1	Y1	Z1	X2	Y2	Z2	X3	Y3	Z3	X4	Y4	Z4	X5	Y5	Z5	X6	Y6	Z6	X7	Y7	Z7	X8	Y8	Z8	X9	Y9	Z9	X10	Y10	Z10	X11	Y11	Z11	X12	Y12	Z12	X13	Y13	Z13	X14	Y14	Z14	X15	Y15	Z15	X16	Y16	Z16	X17	Y17	Z17	X18	Y18	Z18	X19	Y19	Z19	X20	Y20	Z20	X21	Y21	Z21	X22	Y22	Z22	X23	Y23	Z23	X24	Y24	Z24	X25	Y25	Z25	X26	Y26	Z26	X27	Y27	Z27	X28	Y28	Z28	X29	Y29	Z29	X30	Y30	Z30	X31	Y31	Z31	X32	Y32	Z32	X33	Y33	Z33	X34	Y34	Z34	X35	Y35	Z35	X36	Y36	Z36	X37	Y37	Z37	X38	Y38	Z38	X39	Y39	Z39	X40	Y40	Z40	X41	Y41	Z41	X42	Y42	Z42	X43	Y43	Z43	X44	Y44	Z44	X45	Y45	Z45	X46	Y46	Z46	X47	Y47	Z47	X48	Y48	Z48	X49	Y49	Z49	X50	Y50	Z50	X51	Y51	Z51	X52	Y52	Z52	X53	Y53	Z53	X54	Y54	Z54	X55	Y55	Z55	X56	Y56	Z56	

162	1.35000	884.86894	1031.22884	-613.99406	893.54461	1024.56516	-377.07571	726.30740	1056.00783	-541.71357	724.10114	1053.21810	-443.19159	812.37815	871.71168	-302.29046	875.32516	738.71960	-304.24561	792.80285	612.09673	-313.82155	808.71510	515.65355	-306.07684	796.97232	503.16978	-429.20697	823.93401	850.35899	-683.87075	875.81510	741.19071	-683.50637	800.51350	627.33073	-665.56480	819.61436	519.14122	-669.72839	811.76065	503.82244	-551.01240	835.50413	372.46932	-339.32197	789.65687	329.83507	-268.39761	810.94833	254.20946	-322.40827	740.50617	139.87790	-266.59853	775.29058	124.16797	-345.11258	845.88227	394.11886	-627.20246	790.25148	336.97819	-708.74379	817.96094	229.95311	-655.81797	785.65919	122.32031	-627.49251	761.19847	125.97036	-710.20513	689.61027	105.43882	-301.86883	896.88402	73.57621	-315.95236	874.09551	64.03774	-222.71629	703.45806	107.31360	-672.15624	909.10252	78.03402	-661.84815	890.76744	64.30513	-751.84389	784.44525	1493.85751	-660.05936	784.55062	1491.16184	-313.23772	852.82242	1481.27508	-463.21905	727.43958	1528.30097	-491.07371	852.46081	1453.17571	-638.31223	728.50382	1440.67694	-678.45327	848.26381	1459.56146	-337.13938	717.47589	1438.53168	-310.32512	838.17897	1442.50402	-202.96548	811.07982	1384.94611	-176.41166	895.45809	1422.95813	-140.38706	939.07181	1401.40688	-81.65933	941.73247	1320.60926	-100.71217	834.03484	1430.71008	-771.25914	851.11307	1379.69493	-818.02966	925.87855	1421.71786	-806.42128	970.13361	1394.26869	-881.48553	949.06879	1319.15248	-859.36572	1060.79591	1412.71229	-122.31322	1175.35728	1378.36492	-176.93009	1182.02273	1382.03845	-105.77288	1097.11630	1398.20892	-843.72381	1190.40806	1345.86307	-768.99634	1207.87461	1370.71034	-831.51149	803.41436	994.00468	-429.70123	817.69893	979.77500	-556.84860	
163	1.35833	884.92001	1031.22955	-613.95988	893.60302	1024.54925	-377.08293	726.37210	1056.00914	-541.68648	724.18098	1053.21473	-443.22792	812.42132	871.71706	-302.29693	875.35500	738.73308	-304.26727	792.80331	612.09282	-313.83593	808.73141	515.71214	-305.98892	796.95160	503.18248	-429.21921	823.96039	850.35462	-683.87167	875.83514	741.18988	-683.48762	800.53841	627.33323	-665.57503	819.61770	519.14452	-669.69928	811.77817	503.82083	-551.02492	835.50037	372.47025	-339.32272	789.63709	329.75037	-268.48792	810.94882	254.20354	-322.40479	740.50244	139.87002	-266.61907	775.29076	124.16687	-345.11242	845.88564	394.11620	-627.19781	790.25031	336.97716	-708.75469	817.95930	229.95326	-655.81226	785.65733	122.31501	-627.49146	761.18971	125.97399	-710.19319	689.60571	105.43164	-301.87091	896.88759	73.57754	-315.94664	874.08450	64.04136	-222.71908	703.45853	107.30358	-672.11322	909.10235	78.03376	-661.83110	890.76932	64.30343	-751.84225	784.49035	1493.86449	-660.04270	784.60217	1491.14989	-313.23177	852.87905	1481.27260	-463.19129	727.48986	1528.30469	-491.05237	852.51675	1453.17010	-638.31772	728.54643	1440.68957	-678.43241	848.30976	1459.54586	-337.14422	717.51607	1438.53572	-310.31636	838.22959	1442.48992	-202.97362	811.12836	1384.93639	-176.41465	895.53671	1422.94181	-140.38366	939.12844	1401.37550	-81.66051	941.79998	1320.58982	-100.70498	834.08348	1430.69778	-771.26575	851.14989	1379.68983	-818.02449	925.92459	1421.70597	-806.42517	970.16741	1394.26634	-881.50151	949.10678	1319.13619	-859.39309	1060.85197	1412.68964	-122.32973	1175.41228	1378.34251	-176.94308	1182.09524	1382.02702	-105.81421	1097.15271	1398.18507	-843.76319	1190.46450	1346.03046	-769.00353	1207.92159	1370.70016	-831.50606	803.46499	993.99812	-429.69967	817.76355	979.77373	-556.84562	
164	1.36667	884.97556	1031.22580	-613.91845	893.67218	1024.53376	-377.07217	726.42902	1056.00571	-541.64988	724.25375	1053.29923	-443.18422	812.47365	871.74632	-302.28951	875.36835	738.72632	-304.30107	792.78045	611.96853	-313.98519	808.75333	515.79856	-305.85077	796.93289	503.19490	-429.22585	823.98460	850.35134	-683.86084	875.85922	741.18454	-683.46968	800.54952	627.34039	-665.57540	819.61365	519.14828	-669.67046	811.68255	503.89113	-551.00450	835.50441	372.47267	-339.31671	789.61642	329.66640	-268.57330	810.94884	254.19915	-322.40272	740.49873	139.86127	-266.64256	775.29097	124.16470	-345.11239	845.88469	394.11726	-627.20096	790.24487	336.97602	-708.76234	817.95507	229.95133	-655.80621	785.65437	122.31005	-627.49322	761.18398	125.98209	-710.19090	689.60123	105.43006	-301.87008	896.88815	73.57945	-315.93721	874.07263	64.03841	-222.72573	703.45787	107.31057	-672.11744	909.10261	78.03550	-661.80969	890.76719	64.30165	-751.84535	784.53875	1493.86714	-660.02969	784.64983	1491.13904	-313.22239	852.93624	1481.27510	-463.15282	727.54802	1528.30547	-491.03100	852.57896	1453.16696	-638.31101	728.59468	1440.70500	-678.42852	848.35430	1459.53066	-337.15459	717.55249	1438.52769	-310.31568	838.27428	1442.47482	-202.98352	811.17802	1384.91914	-176.42396	895.60166	1422.91261	-140.38236	939.17900	1401.34590	-81.65958	941.84503	1320.57125	-100.71070	834.12876	1430.69460	-771.26163	851.18211	1379.70432	-818.00670	925.97009	1421.69880	-806.42434	970.19858	1394.27293	-881.50032	949.13818	1319.13178	-859.39493	1060.90715	1412.66714	-122.34619	1175.46507	1378.32842	-176.91140	1182.15831	1382.00823	-105.87265	1097.19371	1398.16940	-843.76992	1190.52394	1346.20497	-769.00967	1207.96961	1370.68206	-831.51539	803.52035	994.01178	-429.66830	817.80471	979.78859	-556.81600	
165	1.37500	885.03934	1031.21585	-613.88739	893.75051	1024.51693	-377.05306	726.48363	1056.00118	-541.61275	724.32106	1053.43213	-443.09503	812.51864	871.79798	-302.24902	875.36318	738.69038	-304.34497	792.76049	611.85435	-314.10768	808.76322	515.86319	-305.74126	796.92961	503.20229	-429.22608	824.01540	850.34932	-683.84438	875.88872	741.17599	-683.45827	800.54955	627.34935	-665.56933	819.60587	519.14954	-669.64953	811.48785	504.03346	-550.94750	835.51118	372.47621	-339.30401	789.60262	329.61853	-268.61636	810.94745	254.19790	-322.40108	740.50000	139.85930	-266.64992	775.29095	124.16452	-345.11249	845.88017	394.12259	-627.20933	790.23627	336.97651	-708.76102	817.94925	229.94856	-655.80048	785.65325	122.30965	-627.49480	761.18078	125.98760	-710.19776	689.59825	105.43249	-301.86695	896.88610	73.57992	-315.92923	874.06619	64.03309	-222.73062	703.45612	107.32850	-672.16314	909.10312	78.03867	-661.80111	890.76283	64.30041	-751.85122	784.59296	1493.86677	-660.02364	784.69623	1491.12771	-313.20907	852.99106	1481.27863	-463.11579	727.60556	1528.30666	-491.00925	852.64497	1453.16482	-638.29123	728.65035	1440.71725	-678.43794	848.39738	1459.52043	-337.15828	717.58876	1438.50656	-310.31422	838.31457	1442.45715	-202.99307	811.22953	1384.89525	-176.43187	895.65827	1422.87362	-140.37968	939.22537	1401.31510	-81.65516	941.87902	1320.54955	-100.71528	834.17051	1430.70511	-771.24796	851.21457	1379.73236	-817.98564	926.01591	1421.70232	-806.42498	970.23081	1394.28176	-881.49642	949.16304	1319.14475	-859.37377	1060.96320	1412.64608	-122.35956	1175.52720	1378.34091	-176.79899	1182.21388	1381.98827	-105.92924	1097.23653	1398.16191	-843.75037	1190.57661	1346.29729	-769.02929	1208.01322	1370.65519	-831.54407	803.58320	994.03568	-429.62497	817.83273	979.81084	-556.77682	
